<svg width="100" height="100" viewBox="0 0 100 100" fill="none" xmlns="http://www.w3.org/2000/svg">
    <rect width="100" height="100" fill="white"/>
    <path d="M0 0V100H100V0H0ZM32.1125 57.1125C31.2959 57.9291 30.2291 58.3334 29.1666 58.3334C28.1 58.3334 27.0332 57.9293 26.2207 57.1125L9.5541 40.45C9.1707 40.0666 8.8666 39.6041 8.6541 39.0916C8.2332 38.075 8.2332 36.9291 8.6541 35.9082C8.8666 35.3998 9.1707 34.9373 9.5541 34.5541L26.2207 17.8875C27.8457 16.2625 30.4832 16.2625 32.1123 17.8875C33.7373 19.5166 33.7373 22.1541 32.1123 23.7791L22.5582 33.3332H58.3332C60.6332 33.3332 62.4998 35.1998 62.4998 37.4998C62.4998 39.8039 60.6332 41.6664 58.3332 41.6664H22.5584L32.1125 51.2205C33.7375 52.85 33.7375 55.4875 32.1125 57.1125ZM91.3459 64.0916C91.1334 64.6041 90.8293 65.0666 90.4418 65.45L73.7793 82.1125C72.9627 82.9291 71.8959 83.3334 70.8334 83.3334C69.7668 83.3334 68.7 82.9293 67.8875 82.1125C66.2584 80.4875 66.2584 77.85 67.8875 76.2209L77.4416 66.6668H41.6666C39.3625 66.6666 37.5 64.8041 37.5 62.5C37.5 60.2 39.3625 58.3334 41.6666 58.3334H77.4416L67.8875 48.7793C66.2584 47.1543 66.2584 44.5168 67.8875 42.8877C69.5125 41.2627 72.15 41.2627 73.7791 42.8877L90.4416 59.5543C90.8291 59.9377 91.1332 60.4002 91.3457 60.9084C91.7666 61.9291 91.7666 63.075 91.3459 64.0916Z" fill="#5839E3"/>
</svg>
